<svg width="20" height="20" viewBox="0 0 20 20" fill="none" xmlns="http://www.w3.org/2000/svg">
<path d="M13.2448 14.11L14.9248 12.43C15.1511 12.2066 15.4374 12.0536 15.7489 11.9897C16.0604 11.9258 16.3838 11.9537 16.6798 12.07L18.7273 12.8875C19.0264 13.0089 19.2829 13.2162 19.4644 13.4831C19.6459 13.75 19.7443 14.0647 19.7473 14.3875V18.1375C19.7456 18.3571 19.6994 18.5741 19.6116 18.7753C19.5238 18.9766 19.3962 19.158 19.2364 19.3087C19.0766 19.4594 18.888 19.5761 18.682 19.652C18.4759 19.7278 18.2566 19.7612 18.0373 19.75C3.68979 18.8575 0.794793 6.70753 0.247293 2.05753C0.221877 1.82918 0.245099 1.59804 0.315429 1.37931C0.385759 1.16058 0.501604 0.959225 0.655343 0.788483C0.809082 0.61774 0.997231 0.481484 1.20741 0.388679C1.41759 0.295873 1.64504 0.248621 1.87479 0.250031H5.49729C5.82055 0.250987 6.13613 0.348631 6.40344 0.530403C6.67075 0.712174 6.87757 0.96976 6.99729 1.27003L7.81479 3.31753C7.93498 3.61233 7.96565 3.93601 7.90295 4.24814C7.84026 4.56027 7.68699 4.847 7.46229 5.07253L5.78229 6.75253C5.78229 6.75253 6.74979 13.3 13.2448 14.11Z" fill="white"/>
</svg>
