<svg width="25" height="24" viewBox="0 0 25 24" fill="none" xmlns="http://www.w3.org/2000/svg">
<path d="M22.5 12.5L21.667 15M17 20.51L17.01 20.499M20 20.51L20.01 20.499M2.5 18C2.50002 16.6861 2.86983 15.3987 3.56714 14.2851C4.26444 13.1715 5.26109 12.2766 6.44309 11.7029C7.62508 11.1291 8.94471 10.8995 10.251 11.0405C11.5574 11.1815 12.7976 11.6873 13.83 12.5M21.667 15L20.5 18.5H16L15 15H21.667ZM9.5 11C10.5609 11 11.5783 10.5786 12.3284 9.82843C13.0786 9.07828 13.5 8.06087 13.5 7C13.5 5.93913 13.0786 4.92172 12.3284 4.17157C11.5783 3.42143 10.5609 3 9.5 3C8.43913 3 7.42172 3.42143 6.67157 4.17157C5.92143 4.92172 5.5 5.93913 5.5 7C5.5 8.06087 5.92143 9.07828 6.67157 9.82843C7.42172 10.5786 8.43913 11 9.5 11V11Z" stroke="#919399" stroke-width="1.5" stroke-linecap="round" stroke-linejoin="round"/>
</svg>
