<svg width="25" height="24" viewBox="0 0 25 24" fill="none" xmlns="http://www.w3.org/2000/svg">
<path d="M2.5 18C2.50002 16.6861 2.86983 15.3987 3.56714 14.2851C4.26444 13.1715 5.26109 12.2766 6.44309 11.7029C7.62508 11.1291 8.94471 10.8995 10.251 11.0405C11.5574 11.1815 12.7976 11.6873 13.83 12.5M17.5 13H19.5M9.5 11C10.5609 11 11.5783 10.5786 12.3284 9.82843C13.0786 9.07828 13.5 8.06087 13.5 7C13.5 5.93913 13.0786 4.92172 12.3284 4.17157C11.5783 3.42143 10.5609 3 9.5 3C8.43913 3 7.42172 3.42143 6.67157 4.17157C5.92143 4.92172 5.5 5.93913 5.5 7C5.5 8.06087 5.92143 9.07828 6.67157 9.82843C7.42172 10.5786 8.43913 11 9.5 11V11ZM21.864 16.707L22.16 18.707C22.2021 18.9913 22.1824 19.2813 22.1024 19.5573C22.0223 19.8333 21.8837 20.0888 21.696 20.3064C21.5083 20.524 21.2759 20.6986 21.0146 20.8183C20.7534 20.9379 20.4694 20.9999 20.182 21H16.818C16.5306 20.9999 16.2466 20.9379 15.9854 20.8183C15.7241 20.6986 15.4917 20.524 15.304 20.3064C15.1163 20.0888 14.9777 19.8333 14.8976 19.5573C14.8176 19.2813 14.7979 18.9913 14.84 18.707L15.136 16.707C15.2063 16.2326 15.4447 15.7992 15.8077 15.4859C16.1708 15.1725 16.6344 15.0001 17.114 15H19.886C20.3656 15.0001 20.8292 15.1725 21.1923 15.4859C21.5553 15.7992 21.7937 16.2326 21.864 16.707V16.707Z" stroke="#919399" stroke-width="1.5" stroke-linecap="round" stroke-linejoin="round"/>
</svg>
