<svg width="25" height="24" viewBox="0 0 25 24" fill="none" xmlns="http://www.w3.org/2000/svg">
<path d="M13.5 21H4.5C3.96957 21 3.46086 20.7893 3.08579 20.4142C2.71071 20.0391 2.5 19.5304 2.5 19V5C2.5 4.46957 2.71071 3.96086 3.08579 3.58579C3.46086 3.21071 3.96957 3 4.5 3H20.5C21.0304 3 21.5391 3.21071 21.9142 3.58579C22.2893 3.96086 22.5 4.46957 22.5 5V12" stroke="#919399" stroke-width="1.5" stroke-linecap="round"/>
<path d="M2.5 7.00002H22.5M5.5 5.01002L5.51 4.99902M8.5 5.01002L8.51 4.99902M11.5 5.01002L11.51 4.99902M19.492 14.125L22.048 14.774C22.314 14.842 22.501 15.084 22.493 15.358C22.321 21.116 19 22 19 22C19 22 15.679 21.116 15.507 15.358C15.5039 15.2246 15.5463 15.0942 15.6271 14.988C15.708 14.8819 15.8226 14.8064 15.952 14.774L18.508 14.125C18.831 14.043 19.169 14.043 19.492 14.125V14.125Z" stroke="#919399" stroke-width="1.5" stroke-linecap="round" stroke-linejoin="round"/>
</svg>
