<svg width="25" height="24" viewBox="0 0 25 24" fill="none" xmlns="http://www.w3.org/2000/svg">
<path d="M18.5 12.5C18.6326 12.5 18.7598 12.4473 18.8536 12.3536C18.9473 12.2598 19 12.1326 19 12C19 11.8674 18.9473 11.7402 18.8536 11.6464C18.7598 11.5527 18.6326 11.5 18.5 11.5C18.3674 11.5 18.2402 11.5527 18.1464 11.6464C18.0527 11.7402 18 11.8674 18 12C18 12.1326 18.0527 12.2598 18.1464 12.3536C18.2402 12.4473 18.3674 12.5 18.5 12.5ZM12.5 12.5C12.6326 12.5 12.7598 12.4473 12.8536 12.3536C12.9473 12.2598 13 12.1326 13 12C13 11.8674 12.9473 11.7402 12.8536 11.6464C12.7598 11.5527 12.6326 11.5 12.5 11.5C12.3674 11.5 12.2402 11.5527 12.1464 11.6464C12.0527 11.7402 12 11.8674 12 12C12 12.1326 12.0527 12.2598 12.1464 12.3536C12.2402 12.4473 12.3674 12.5 12.5 12.5ZM6.5 12.5C6.63261 12.5 6.75979 12.4473 6.85355 12.3536C6.94732 12.2598 7 12.1326 7 12C7 11.8674 6.94732 11.7402 6.85355 11.6464C6.75979 11.5527 6.63261 11.5 6.5 11.5C6.36739 11.5 6.24021 11.5527 6.14645 11.6464C6.05268 11.7402 6 11.8674 6 12C6 12.1326 6.05268 12.2598 6.14645 12.3536C6.24021 12.4473 6.36739 12.5 6.5 12.5Z" fill="#919399" stroke="#919399" stroke-width="1.5" stroke-linecap="round" stroke-linejoin="round"/>
</svg>
