<svg width="164" height="25" viewBox="0 0 164 25" fill="none" xmlns="http://www.w3.org/2000/svg">
<path d="M0.0227273 24V0.727272H9.20455C10.9697 0.727272 12.4735 1.06439 13.7159 1.73864C14.9583 2.4053 15.9053 3.33333 16.5568 4.52273C17.2159 5.70454 17.5455 7.06818 17.5455 8.61364C17.5455 10.1591 17.2121 11.5227 16.5455 12.7045C15.8788 13.8864 14.9129 14.8068 13.6477 15.4659C12.3902 16.125 10.8674 16.4545 9.07955 16.4545H3.22727V12.5114H8.28409C9.23106 12.5114 10.0114 12.3485 10.625 12.0227C11.2462 11.6894 11.7083 11.2311 12.0114 10.6477C12.322 10.0568 12.4773 9.37879 12.4773 8.61364C12.4773 7.84091 12.322 7.16667 12.0114 6.59091C11.7083 6.00757 11.2462 5.55682 10.625 5.23864C10.0038 4.91288 9.21591 4.75 8.26136 4.75H4.94318V24H0.0227273ZM20.7415 24V0.727272H29.9233C31.6809 0.727272 33.1809 1.04167 34.4233 1.67045C35.6733 2.29167 36.6241 3.17424 37.2756 4.31818C37.9347 5.45454 38.2642 6.79167 38.2642 8.32955C38.2642 9.875 37.9309 11.2045 37.2642 12.3182C36.5975 13.4242 35.6316 14.2727 34.3665 14.8636C33.1089 15.4545 31.5862 15.75 29.7983 15.75H23.6506V11.7955H29.0028C29.9422 11.7955 30.7225 11.6667 31.3438 11.4091C31.965 11.1515 32.4271 10.7652 32.7301 10.25C33.0407 9.73485 33.196 9.0947 33.196 8.32955C33.196 7.55682 33.0407 6.9053 32.7301 6.375C32.4271 5.8447 31.9612 5.44318 31.3324 5.17045C30.7112 4.89015 29.9271 4.75 28.9801 4.75H25.6619V24H20.7415ZM33.3097 13.4091L39.0938 24H33.6619L28.0028 13.4091H33.3097ZM63.1278 12.3636C63.1278 14.9015 62.6468 17.0606 61.6847 18.8409C60.7301 20.6212 59.4271 21.9811 57.7756 22.9205C56.1316 23.8523 54.2831 24.3182 52.2301 24.3182C50.1619 24.3182 48.3059 23.8485 46.6619 22.9091C45.018 21.9697 43.7188 20.6098 42.7642 18.8295C41.8097 17.0492 41.3324 14.8939 41.3324 12.3636C41.3324 9.82576 41.8097 7.66667 42.7642 5.88636C43.7188 4.10606 45.018 2.75 46.6619 1.81818C48.3059 0.878787 50.1619 0.40909 52.2301 0.40909C54.2831 0.40909 56.1316 0.878787 57.7756 1.81818C59.4271 2.75 60.7301 4.10606 61.6847 5.88636C62.6468 7.66667 63.1278 9.82576 63.1278 12.3636ZM58.1392 12.3636C58.1392 10.7197 57.893 9.33333 57.4006 8.20455C56.9157 7.07576 56.2301 6.2197 55.3438 5.63636C54.4574 5.05303 53.4195 4.76136 52.2301 4.76136C51.0407 4.76136 50.0028 5.05303 49.1165 5.63636C48.2301 6.2197 47.5407 7.07576 47.0483 8.20455C46.5634 9.33333 46.321 10.7197 46.321 12.3636C46.321 14.0076 46.5634 15.3939 47.0483 16.5227C47.5407 17.6515 48.2301 18.5076 49.1165 19.0909C50.0028 19.6742 51.0407 19.9659 52.2301 19.9659C53.4195 19.9659 54.4574 19.6742 55.3438 19.0909C56.2301 18.5076 56.9157 17.6515 57.4006 16.5227C57.893 15.3939 58.1392 14.0076 58.1392 12.3636ZM77.5568 10.4432V14.2841H66.9432V10.4432H77.5568ZM90.0227 24H81.7727V0.727272H90.0909C92.4318 0.727272 94.447 1.19318 96.1364 2.125C97.8258 3.04924 99.125 4.37879 100.034 6.11364C100.951 7.84848 101.409 9.92424 101.409 12.3409C101.409 14.7652 100.951 16.8485 100.034 18.5909C99.125 20.3333 97.8182 21.6705 96.1136 22.6023C94.4167 23.5341 92.3864 24 90.0227 24ZM86.6932 19.7841H89.8182C91.2727 19.7841 92.4962 19.5265 93.4886 19.0114C94.4886 18.4886 95.2386 17.6818 95.7386 16.5909C96.2462 15.4924 96.5 14.0758 96.5 12.3409C96.5 10.6212 96.2462 9.21591 95.7386 8.125C95.2386 7.03409 94.4924 6.23106 93.5 5.71591C92.5076 5.20076 91.2841 4.94318 89.8295 4.94318H86.6932V19.7841ZM105.054 24V0.727272H120.736V4.78409H109.974V10.3295H119.929V14.3864H109.974V19.9432H120.781V24H105.054ZM128.659 24H123.386L131.42 0.727272H137.761L145.784 24H140.511L134.682 6.04545H134.5L128.659 24ZM128.33 14.8523H140.784V18.6932H128.33V14.8523ZM148.585 24V0.727272H153.506V19.9432H163.483V24H148.585Z" fill="#919399"/>
</svg>
