<svg width="164" height="25" fill="none" xmlns="http://www.w3.org/2000/svg"><path d="M.023 24V.727h9.182c1.765 0 3.268.337 4.51 1.012 1.243.666 2.19 1.594 2.842 2.784.659 1.182.989 2.545.989 4.09 0 1.546-.334 2.91-1 4.091-.667 1.182-1.633 2.103-2.898 2.762-1.258.659-2.78.989-4.568.989H3.227V12.51h5.057c.947 0 1.727-.162 2.341-.488.621-.334 1.083-.792 1.386-1.375.311-.591.466-1.27.466-2.034 0-.773-.155-1.447-.466-2.023-.303-.583-.765-1.034-1.386-1.352-.621-.326-1.41-.489-2.364-.489H4.943V24H.023Zm20.718 0V.727h9.182c1.758 0 3.258.315 4.5.943 1.25.622 2.201 1.504 2.853 2.648.659 1.137.988 2.474.988 4.012 0 1.545-.333 2.874-1 3.988-.667 1.106-1.632 1.955-2.898 2.546-1.257.59-2.78.886-4.568.886h-6.147v-3.954h5.352c.94 0 1.72-.13 2.34-.387.622-.258 1.084-.644 1.387-1.159.31-.515.466-1.155.466-1.92 0-.773-.155-1.425-.466-1.955-.303-.53-.769-.932-1.398-1.205-.62-.28-1.405-.42-2.352-.42h-3.318V24h-4.92ZM33.31 13.41 39.094 24h-5.432l-5.66-10.59h5.308Zm29.818-1.046c0 2.537-.481 4.697-1.443 6.477-.955 1.78-2.258 3.14-3.91 4.08-1.643.931-3.492 1.397-5.545 1.397-2.068 0-3.924-.47-5.568-1.409-1.644-.94-2.943-2.3-3.898-4.08-.954-1.78-1.432-3.935-1.432-6.465 0-2.538.478-4.697 1.432-6.478.955-1.78 2.254-3.136 3.898-4.068C48.306.878 50.162.41 52.23.41c2.053 0 3.902.47 5.546 1.41 1.651.931 2.954 2.287 3.909 4.067.962 1.78 1.443 3.94 1.443 6.478Zm-4.989 0c0-1.644-.246-3.03-.738-4.16-.485-1.128-1.17-1.984-2.057-2.568-.887-.583-1.925-.875-3.114-.875-1.19 0-2.227.292-3.113.875-.887.584-1.576 1.44-2.069 2.569-.485 1.128-.727 2.515-.727 4.159 0 1.644.242 3.03.727 4.159.493 1.128 1.182 1.985 2.069 2.568.886.583 1.924.875 3.113.875 1.19 0 2.227-.292 3.114-.875.886-.583 1.572-1.44 2.057-2.568.492-1.13.738-2.515.738-4.16Zm19.418-1.92v3.84H66.943v-3.84h10.614ZM90.023 24h-8.25V.727h8.318c2.34 0 4.356.466 6.045 1.398 1.69.924 2.989 2.254 3.898 3.989.917 1.734 1.375 3.81 1.375 6.227 0 2.424-.458 4.508-1.375 6.25-.909 1.742-2.216 3.08-3.92 4.011-1.697.932-3.728 1.398-6.091 1.398Zm-3.33-4.216h3.125c1.455 0 2.678-.258 3.67-.773 1-.522 1.75-1.33 2.25-2.42.508-1.099.762-2.515.762-4.25 0-1.72-.254-3.125-.761-4.216-.5-1.09-1.247-1.894-2.239-2.41-.992-.514-2.216-.772-3.67-.772h-3.137v14.841ZM105.054 24V.727h15.682v4.057h-10.762v5.545h9.955v4.057h-9.955v5.557h10.807V24h-15.727Zm23.605 0h-5.273L131.42.727h6.341L145.784 24h-5.273l-5.829-17.955h-.182L128.659 24Zm-.329-9.148h12.454v3.841H128.33v-3.84ZM148.585 24V.727h4.921v19.216h9.977V24h-14.898Z" fill="#919399"/></svg>