<svg width="97" height="16" viewBox="0 0 97 16" fill="none" xmlns="http://www.w3.org/2000/svg">
<path d="M6.2245 5.69198L7.9565 2.02039C8.00692 1.91414 8.08446 1.82476 8.18043 1.7623C8.2764 1.69984 8.387 1.66675 8.49983 1.66675C8.61267 1.66675 8.72327 1.69984 8.81924 1.7623C8.91521 1.82476 8.99275 1.91414 9.04317 2.02039L10.7752 5.69198L14.6472 6.28426C14.7589 6.30056 14.8639 6.34959 14.9504 6.42574C15.0369 6.50189 15.1013 6.60211 15.1363 6.71494C15.1712 6.82778 15.1754 6.94869 15.1482 7.06387C15.121 7.17906 15.0636 7.28388 14.9825 7.36636L12.1812 10.2225L12.8425 14.2576C12.9272 14.7755 12.4072 15.1699 11.9625 14.9257L8.49983 13.0197L5.0365 14.9257C4.5925 15.1706 4.0725 14.7755 4.15717 14.2569L4.8185 10.2218L2.01717 7.36566C1.93649 7.28312 1.87943 7.17841 1.85248 7.06343C1.82552 6.94845 1.82975 6.82781 1.86468 6.71524C1.89961 6.60266 1.96384 6.50266 2.05008 6.4266C2.13631 6.35053 2.24109 6.30146 2.3525 6.28496L6.2245 5.69198Z" fill="#FFD400" stroke="#FFD400" stroke-width="0.5" stroke-linecap="round" stroke-linejoin="round"/>
<path d="M26.2245 5.69198L27.9565 2.02039C28.0069 1.91414 28.0845 1.82476 28.1804 1.7623C28.2764 1.69984 28.387 1.66675 28.4998 1.66675C28.6127 1.66675 28.7233 1.69984 28.8192 1.7623C28.9152 1.82476 28.9927 1.91414 29.0432 2.02039L30.7752 5.69198L34.6472 6.28426C34.7589 6.30056 34.8639 6.34959 34.9504 6.42574C35.0369 6.50189 35.1013 6.60211 35.1363 6.71494C35.1712 6.82778 35.1754 6.94869 35.1482 7.06387C35.121 7.17906 35.0636 7.28388 34.9825 7.36636L32.1812 10.2225L32.8425 14.2576C32.9272 14.7755 32.4072 15.1699 31.9625 14.9257L28.4998 13.0197L25.0365 14.9257C24.5925 15.1706 24.0725 14.7755 24.1572 14.2569L24.8185 10.2218L22.0172 7.36566C21.9365 7.28312 21.8794 7.17841 21.8525 7.06343C21.8255 6.94845 21.8297 6.82781 21.8647 6.71524C21.8996 6.60266 21.9638 6.50266 22.0501 6.4266C22.1363 6.35053 22.2411 6.30146 22.3525 6.28496L26.2245 5.69198Z" fill="#FFD400" stroke="#FFD400" stroke-width="0.5" stroke-linecap="round" stroke-linejoin="round"/>
<path d="M46.2245 5.69198L47.9565 2.02039C48.0069 1.91414 48.0845 1.82476 48.1804 1.7623C48.2764 1.69984 48.387 1.66675 48.4998 1.66675C48.6127 1.66675 48.7233 1.69984 48.8192 1.7623C48.9152 1.82476 48.9927 1.91414 49.0432 2.02039L50.7752 5.69198L54.6472 6.28426C54.7589 6.30056 54.8639 6.34959 54.9504 6.42574C55.0369 6.50189 55.1013 6.60211 55.1363 6.71494C55.1712 6.82778 55.1754 6.94869 55.1482 7.06387C55.121 7.17906 55.0636 7.28388 54.9825 7.36636L52.1812 10.2225L52.8425 14.2576C52.9272 14.7755 52.4072 15.1699 51.9625 14.9257L48.4998 13.0197L45.0365 14.9257C44.5925 15.1706 44.0725 14.7755 44.1572 14.2569L44.8185 10.2218L42.0172 7.36566C41.9365 7.28312 41.8794 7.17841 41.8525 7.06343C41.8255 6.94845 41.8297 6.82781 41.8647 6.71524C41.8996 6.60266 41.9638 6.50266 42.0501 6.4266C42.1363 6.35053 42.2411 6.30146 42.3525 6.28496L46.2245 5.69198Z" fill="#FFD400" stroke="#FFD400" stroke-width="0.5" stroke-linecap="round" stroke-linejoin="round"/>
<path d="M66.2245 5.69198L67.9565 2.02039C68.0069 1.91414 68.0845 1.82476 68.1804 1.7623C68.2764 1.69984 68.387 1.66675 68.4998 1.66675C68.6127 1.66675 68.7233 1.69984 68.8192 1.7623C68.9152 1.82476 68.9927 1.91414 69.0432 2.02039L70.7752 5.69198L74.6472 6.28426C74.7589 6.30056 74.8639 6.34959 74.9504 6.42574C75.0369 6.50189 75.1013 6.60211 75.1363 6.71494C75.1712 6.82778 75.1754 6.94869 75.1482 7.06387C75.121 7.17906 75.0636 7.28388 74.9825 7.36636L72.1812 10.2225L72.8425 14.2576C72.9272 14.7755 72.4072 15.1699 71.9625 14.9257L68.4998 13.0197L65.0365 14.9257C64.5925 15.1706 64.0725 14.7755 64.1572 14.2569L64.8185 10.2218L62.0172 7.36566C61.9365 7.28312 61.8794 7.17841 61.8525 7.06343C61.8255 6.94845 61.8297 6.82781 61.8647 6.71524C61.8996 6.60266 61.9638 6.50266 62.0501 6.4266C62.1363 6.35053 62.2411 6.30146 62.3525 6.28496L66.2245 5.69198Z" fill="#FFD400" stroke="#FFD400" stroke-width="0.5" stroke-linecap="round" stroke-linejoin="round"/>
<path d="M86.2245 5.69198L87.9565 2.02039C88.0069 1.91414 88.0845 1.82476 88.1804 1.7623C88.2764 1.69984 88.387 1.66675 88.4998 1.66675C88.6127 1.66675 88.7233 1.69984 88.8192 1.7623C88.9152 1.82476 88.9927 1.91414 89.0432 2.02039L90.7752 5.69198L94.6472 6.28426C94.7589 6.30056 94.8639 6.34959 94.9504 6.42574C95.0369 6.50189 95.1013 6.60211 95.1363 6.71494C95.1712 6.82778 95.1754 6.94869 95.1482 7.06387C95.121 7.17906 95.0636 7.28388 94.9825 7.36636L92.1812 10.2225L92.8425 14.2576C92.9272 14.7755 92.4072 15.1699 91.9625 14.9257L88.4998 13.0197L85.0365 14.9257C84.5925 15.1706 84.0725 14.7755 84.1572 14.2569L84.8185 10.2218L82.0172 7.36566C81.9365 7.28312 81.8794 7.17841 81.8525 7.06343C81.8255 6.94845 81.8297 6.82781 81.8647 6.71524C81.8996 6.60266 81.9638 6.50266 82.0501 6.4266C82.1363 6.35053 82.2411 6.30146 82.3525 6.28496L86.2245 5.69198Z" fill="#FFD400" stroke="#FFD400" stroke-width="0.5" stroke-linecap="round" stroke-linejoin="round"/>
</svg>
