<svg width="20" height="12" viewBox="0 0 20 12" fill="none" xmlns="http://www.w3.org/2000/svg">
<path d="M19.1647 1.02806C18.9639 1.66982 18.6701 2.27869 18.2927 2.83526L18.3079 2.81126C17.9495 3.4086 17.5215 4.09873 17.0239 4.88166C16.5973 5.4998 16.3714 5.8198 16.3463 5.84166C16.2323 5.98445 16.1586 6.15516 16.1327 6.33606L16.1319 6.34166C16.1523 6.50466 16.228 6.65574 16.3463 6.76966L16.6663 7.12646C18.3783 8.88593 19.3413 10.0987 19.5551 10.7649C19.5957 10.8743 19.6087 10.992 19.5931 11.1076C19.5775 11.2233 19.5337 11.3333 19.4655 11.4281L19.4671 11.4257C19.3866 11.5087 19.2884 11.5726 19.1799 11.6127C19.0713 11.6527 18.9551 11.6678 18.8399 11.6569H18.8431H16.7343C16.4647 11.6569 16.2167 11.5625 16.0223 11.4057L16.0247 11.4073C15.7472 11.1797 15.4924 10.9257 15.2639 10.6489L15.2567 10.6393C14.8882 10.2227 14.5613 9.87206 14.2759 9.58726C13.3255 8.6838 12.6242 8.23206 12.1719 8.23206C12.026 8.21898 11.88 8.25717 11.7591 8.34006L11.7615 8.33846C11.7096 8.40357 11.6715 8.47858 11.6495 8.5589C11.6275 8.63922 11.6221 8.72318 11.6335 8.80566V8.80246C11.6025 9.17573 11.5923 9.55046 11.6031 9.92486V9.91126V10.8385C11.6259 10.9492 11.6181 11.0641 11.5806 11.1707C11.5431 11.2774 11.4773 11.3719 11.3903 11.4441L11.3895 11.4449C10.9844 11.6279 10.5384 11.7015 10.0959 11.6585L10.1063 11.6593C8.8953 11.6385 7.71286 11.2878 6.68634 10.6449L6.71434 10.6609C5.53066 9.94725 4.51607 8.98507 3.74074 7.84086L3.71914 7.80726C2.96653 6.80365 2.30498 5.73487 1.74234 4.61366L1.68634 4.49046C1.31143 3.76442 0.981997 3.01577 0.699944 2.24886L0.651944 2.10086C0.521172 1.70273 0.437928 1.29054 0.403944 0.872863L0.402344 0.852863C0.402344 0.448596 0.64021 0.246463 1.11594 0.246463H3.21994C3.43265 0.229803 3.64381 0.294092 3.81114 0.426463L3.80954 0.424863C3.96954 0.600063 4.08794 0.815262 4.14634 1.05526L4.14874 1.06486C4.49634 2.06032 4.92082 3.02723 5.41834 3.95686L5.36474 3.84726C5.72433 4.57768 6.15951 5.26839 6.66314 5.90806L6.64474 5.88326C7.07141 6.407 7.40421 6.66886 7.64314 6.66886L7.66874 6.66966C7.725 6.66975 7.78027 6.655 7.82901 6.62691C7.87775 6.59882 7.91822 6.55838 7.94634 6.50966L7.94714 6.50806C8.02374 6.30755 8.05409 6.09234 8.03594 5.87846V5.88326V2.78006C8.02099 2.42822 7.93385 2.08321 7.77994 1.76646L7.78634 1.78166C7.69302 1.58036 7.57183 1.39319 7.42634 1.22566L7.42874 1.22886C7.2946 1.09493 7.20732 0.921234 7.17994 0.733662L7.17914 0.728862C7.17914 0.592862 7.24154 0.470463 7.33914 0.390463L7.33994 0.389663C7.44038 0.297678 7.57175 0.246844 7.70794 0.247263H11.0311C11.1146 0.237527 11.1991 0.248658 11.2771 0.279656C11.3552 0.310654 11.4243 0.360549 11.4783 0.424863L11.4791 0.425663C11.5802 0.612363 11.6244 0.824544 11.6063 1.03606V1.03206V5.17046C11.5936 5.33369 11.6316 5.49686 11.7151 5.63766L11.7135 5.63446C11.7428 5.67825 11.7825 5.71414 11.8289 5.73898C11.8754 5.76382 11.9273 5.77683 11.9799 5.77686H11.9807C12.1157 5.7681 12.2458 5.72335 12.3575 5.64726L12.3551 5.64886C12.5727 5.49926 12.7599 5.32886 12.9223 5.13606L12.9255 5.13206C13.4198 4.57284 13.8629 3.97043 14.2495 3.33206L14.2807 3.27606C14.5559 2.82006 14.8535 2.25846 15.1231 1.68166L15.1727 1.56406L15.5295 0.850462C15.5924 0.665955 15.7135 0.506911 15.8748 0.397366C16.036 0.287821 16.2285 0.233728 16.4231 0.243263H16.4207H18.5255C19.0941 0.243263 19.3074 0.504863 19.1655 1.02806H19.1647Z" fill="white"/>
</svg>
